# xmcd CD database file
#
# Track frame offsets:
#	150
#	17650
#	33005
#	49075
#	80400
#	96130
#	116817
#	135480
#	152357
#	165872
#
# Disc length: 2404 seconds
#
# Revision: 0
# Processed by: cddbd v1.5.1PL0 Copyright (c) Steve Scherf et al.
# Submitted via: CDex 1.51
#
DISCID=6609620a
DTITLE=Bo Ramsey - Down to Bastrop
DYEAR=1991
DGENRE=Blues
TTITLE0=I Never Said
TTITLE1=Long Long Time
TTITLE2=Stranger Blues Again
TTITLE3=Down to Bastrop
TTITLE4=The Big Note
TTITLE5=Back No More
TTITLE6=Jimmy Lee
TTITLE7=Wounded Dog
TTITLE8=555 x 2
TTITLE9=Blue Earth
EXTD=YEAR: 1991
EXTT0=
EXTT1=
EXTT2=
EXTT3=
EXTT4=
EXTT5=
EXTT6=
EXTT7=
EXTT8=
EXTT9=
PLAYORDER=
